<?xml version="1.0" encoding="UTF-8" standalone="no"?>
<!DOCTYPE svg PUBLIC "-//W3C//DTD SVG 1.1//EN"
 "http://www.w3.org/Graphics/SVG/1.1/DTD/svg11.dtd">
<!-- Generated by graphviz version 3.0.0 (20220226.1711)
 -->
<!-- Title: dependencies Pages: 1 -->
<svg width="492pt" height="247pt"
 viewBox="0.00 0.00 492.00 246.80" xmlns="http://www.w3.org/2000/svg" xmlns:xlink="http://www.w3.org/1999/xlink">
<g id="graph0" class="graph" transform="scale(1 1) rotate(0) translate(4 242.8)">
<title>dependencies</title>
<polygon fill="white" stroke="transparent" points="-4,4 -4,-242.8 488,-242.8 488,4 -4,4"/>
<text text-anchor="middle" x="242" y="-8.2" font-family="sans-serif" font-size="14.00">dependencies</text>
<g id="clust1" class="cluster">
<title>cluster_CoreModule</title>
<polygon fill="none" stroke="black" stroke-dasharray="1,5" points="8,-32.8 8,-230.8 476,-230.8 476,-32.8 8,-32.8"/>
</g>
<g id="clust6" class="cluster">
<title>cluster_CoreModule_exports</title>
<polygon fill="none" stroke="black" points="167,-170.8 167,-222.8 303,-222.8 303,-170.8 167,-170.8"/>
</g>
<g id="clust2" class="cluster">
<title>cluster_CoreModule_declarations</title>
<polygon fill="none" stroke="black" points="136,-40.8 136,-92.8 468,-92.8 468,-40.8 136,-40.8"/>
</g>
<g id="clust5" class="cluster">
<title>cluster_CoreModule_imports</title>
<polygon fill="none" stroke="black" points="16,-40.8 16,-92.8 128,-92.8 128,-40.8 16,-40.8"/>
</g>
<!-- HomeComponent -->
<g id="node1" class="node">
<title>HomeComponent</title>
<polygon fill="#ffffb3" stroke="black" points="459.55,-84.8 344.45,-84.8 344.45,-48.8 459.55,-48.8 459.55,-84.8"/>
<text text-anchor="middle" x="402" y="-62.6" font-family="Times,serif" font-size="14.00">HomeComponent</text>
</g>
<!-- CoreModule -->
<g id="node3" class="node">
<title>CoreModule</title>
<polygon fill="#8dd3c7" stroke="black" points="278.27,-149.8 275.27,-153.8 254.27,-153.8 251.27,-149.8 191.73,-149.8 191.73,-113.8 278.27,-113.8 278.27,-149.8"/>
<text text-anchor="middle" x="235" y="-127.6" font-family="Times,serif" font-size="14.00">CoreModule</text>
</g>
<!-- HomeComponent&#45;&gt;CoreModule -->
<g id="edge1" class="edge">
<title>HomeComponent&#45;&gt;CoreModule</title>
<path fill="none" stroke="black" d="M402,-84.91C402,-104.14 402,-131.8 402,-131.8 402,-131.8 288.44,-131.8 288.44,-131.8"/>
<polygon fill="black" stroke="black" points="288.44,-128.3 278.44,-131.8 288.44,-135.3 288.44,-128.3"/>
</g>
<!-- RiepilogoCarrelloComponent -->
<g id="node2" class="node">
<title>RiepilogoCarrelloComponent</title>
<polygon fill="#ffffb3" stroke="black" points="326.42,-84.8 143.58,-84.8 143.58,-48.8 326.42,-48.8 326.42,-84.8"/>
<text text-anchor="middle" x="235" y="-62.6" font-family="Times,serif" font-size="14.00">RiepilogoCarrelloComponent</text>
</g>
<!-- RiepilogoCarrelloComponent&#45;&gt;CoreModule -->
<g id="edge2" class="edge">
<title>RiepilogoCarrelloComponent&#45;&gt;CoreModule</title>
<path fill="none" stroke="black" d="M235,-84.91C235,-84.91 235,-103.79 235,-103.79"/>
<polygon fill="black" stroke="black" points="231.5,-103.79 235,-113.79 238.5,-103.79 231.5,-103.79"/>
</g>
<!-- HomeComponent  -->
<g id="node5" class="node">
<title>HomeComponent </title>
<polygon fill="#fb8072" stroke="black" points="294.54,-214.8 175.46,-214.8 175.46,-178.8 294.54,-178.8 294.54,-214.8"/>
<text text-anchor="middle" x="235" y="-192.6" font-family="Times,serif" font-size="14.00">HomeComponent </text>
</g>
<!-- CoreModule&#45;&gt;HomeComponent  -->
<g id="edge4" class="edge">
<title>CoreModule&#45;&gt;HomeComponent </title>
<path fill="none" stroke="black" stroke-dasharray="5,2" d="M235,-149.91C235,-149.91 235,-168.79 235,-168.79"/>
<polygon fill="black" stroke="black" points="231.5,-168.79 235,-178.79 238.5,-168.79 231.5,-168.79"/>
</g>
<!-- ModelModule -->
<g id="node4" class="node">
<title>ModelModule</title>
<polygon fill="#8dd3c7" stroke="black" points="120.1,-84.8 117.1,-88.8 96.1,-88.8 93.1,-84.8 23.9,-84.8 23.9,-48.8 120.1,-48.8 120.1,-84.8"/>
<text text-anchor="middle" x="72" y="-62.6" font-family="Times,serif" font-size="14.00">ModelModule</text>
</g>
<!-- ModelModule&#45;&gt;CoreModule -->
<g id="edge3" class="edge">
<title>ModelModule&#45;&gt;CoreModule</title>
<path fill="none" stroke="black" d="M72,-84.91C72,-104.14 72,-131.8 72,-131.8 72,-131.8 181.32,-131.8 181.32,-131.8"/>
<polygon fill="black" stroke="black" points="181.32,-135.3 191.32,-131.8 181.32,-128.3 181.32,-135.3"/>
</g>
</g>
</svg>
