<?xml version="1.0" encoding="UTF-8" standalone="no"?>
<!DOCTYPE svg PUBLIC "-//W3C//DTD SVG 1.1//EN"
 "http://www.w3.org/Graphics/SVG/1.1/DTD/svg11.dtd">
<!-- Generated by graphviz version 3.0.0 (20220226.1711)
 -->
<!-- Title: dependencies Pages: 1 -->
<svg width="677pt" height="174pt"
 viewBox="0.00 0.00 677.00 173.80" xmlns="http://www.w3.org/2000/svg" xmlns:xlink="http://www.w3.org/1999/xlink">
<g id="graph0" class="graph" transform="scale(1 1) rotate(0) translate(4 169.8)">
<title>dependencies</title>
<polygon fill="white" stroke="transparent" points="-4,4 -4,-169.8 673,-169.8 673,4 -4,4"/>
<text text-anchor="middle" x="334.5" y="-8.2" font-family="sans-serif" font-size="14.00">dependencies</text>
<g id="clust1" class="cluster">
<title>cluster_ModelModule</title>
<polygon fill="none" stroke="black" stroke-dasharray="1,5" points="8,-32.8 8,-157.8 661,-157.8 661,-32.8 8,-32.8"/>
</g>
<g id="clust6" class="cluster">
<title>cluster_ModelModule_providers</title>
<polygon fill="none" stroke="black" points="16,-40.8 16,-92.8 653,-92.8 653,-40.8 16,-40.8"/>
</g>
<!-- CarrelloService -->
<g id="node1" class="node">
<title>CarrelloService</title>
<ellipse fill="#fdb462" stroke="black" cx="573" cy="-66.8" rx="71.77" ry="18"/>
<text text-anchor="middle" x="573" y="-62.6" font-family="Times,serif" font-size="14.00">CarrelloService</text>
</g>
<!-- ModelModule -->
<g id="node4" class="node">
<title>ModelModule</title>
<polygon fill="#8dd3c7" stroke="black" points="416.1,-149.8 413.1,-153.8 392.1,-153.8 389.1,-149.8 319.9,-149.8 319.9,-113.8 416.1,-113.8 416.1,-149.8"/>
<text text-anchor="middle" x="368" y="-127.6" font-family="Times,serif" font-size="14.00">ModelModule</text>
</g>
<!-- CarrelloService&#45;&gt;ModelModule -->
<g id="edge1" class="edge">
<title>CarrelloService&#45;&gt;ModelModule</title>
<path fill="none" stroke="black" d="M573,-84.91C573,-104.14 573,-131.8 573,-131.8 573,-131.8 426.06,-131.8 426.06,-131.8"/>
<polygon fill="black" stroke="black" points="426.06,-128.3 416.06,-131.8 426.06,-135.3 426.06,-128.3"/>
</g>
<!-- ProdottoRepositoryService -->
<g id="node2" class="node">
<title>ProdottoRepositoryService</title>
<ellipse fill="#fdb462" stroke="black" cx="368" cy="-66.8" rx="115.78" ry="18"/>
<text text-anchor="middle" x="368" y="-62.6" font-family="Times,serif" font-size="14.00">ProdottoRepositoryService</text>
</g>
<!-- ProdottoRepositoryService&#45;&gt;ModelModule -->
<g id="edge2" class="edge">
<title>ProdottoRepositoryService&#45;&gt;ModelModule</title>
<path fill="none" stroke="black" d="M368,-84.91C368,-84.91 368,-103.79 368,-103.79"/>
<polygon fill="black" stroke="black" points="364.5,-103.79 368,-113.79 371.5,-103.79 364.5,-103.79"/>
</g>
<!-- StaticDatasourceService -->
<g id="node3" class="node">
<title>StaticDatasourceService</title>
<ellipse fill="#fdb462" stroke="black" cx="129" cy="-66.8" rx="105.34" ry="18"/>
<text text-anchor="middle" x="129" y="-62.6" font-family="Times,serif" font-size="14.00">StaticDatasourceService</text>
</g>
<!-- StaticDatasourceService&#45;&gt;ModelModule -->
<g id="edge3" class="edge">
<title>StaticDatasourceService&#45;&gt;ModelModule</title>
<path fill="none" stroke="black" d="M129,-84.91C129,-104.14 129,-131.8 129,-131.8 129,-131.8 309.92,-131.8 309.92,-131.8"/>
<polygon fill="black" stroke="black" points="309.92,-135.3 319.92,-131.8 309.92,-128.3 309.92,-135.3"/>
</g>
</g>
</svg>
